<svg xmlns="http://www.w3.org/2000/svg" width="512" height="512" xml:space="preserve"><path fill-rule="evenodd" clip-rule="evenodd" fill="#1AB7EA" d="M406.832 355.254C335.223 437.988 276.129 480 231.242 480c-46.305 0-90.398-74.402-115.102-194.09-13.039-63.145-23.656-86.176-28.719-94.215-.539.305-.969.539-1.438.773l-.031-.07c-2.211 1.125-4.664 1.828-7.32 1.828-8.898 0-16.133-7.211-16.133-16.125 0-5.508 2.781-10.352 7-13.258v-.023c.039-.016.055-.031.086-.055a.238.238 0 0 0 .094-.07c6.422-4.641 13.422-8.266 21.172-8.266 22.633 0 39.875 36.719 57.633 122.746 23.859 115.594 62.758 167.578 82.758 167.578 19.641 0 65.34-14.703 150.668-113.266 22.766-26.297 97.839-117.243 97.839-192.876 0-36.922-9.542-76.394-63.745-76.394l-3.171-.052c-67.938 0-96.423 44.615-108.063 74.482 0 .094.078.07 0 .234a8.145 8.145 0 0 0-.516 2.852c0 4.414 3.594 7.984 8 7.984.406 0 .812-.125 1.203-.18 3.75-.844 6.875-1.398 8.609-1.398.359 0 .828-.039 1.406-.055a88.597 88.597 0 0 1 4.859-.141c22.266 0 35.031 12.156 35.031 33.383 0 32.828-46.859 112.77-69.141 130.863-4 3.266-8.297 4.906-12.766 4.906-19.875 0-36.723-33.969-50.059-100.965-1.828-9.133-3.367-20.688-5.016-32.922-6.695-49.797-17.297-119.242-50.375-119.242-32.039 0-82.867 42.445-116.391 75.617l-.109-.109a16.238 16.238 0 0 1-11.5 4.75c-8.969 0-16.25-7.281-16.25-16.25 0-4.484 1.828-8.539 4.766-11.484C68.906 83.359 125.758 32 173.422 32c65.961 0 77.836 88.336 85.695 146.781 1.559 11.695 3.059 22.727 4.668 30.836 6.453 32.469 13.75 54.34 19.266 66.34 19.5-25.082 47.266-78.824 47.266-94.629v-.141a27.084 27.084 0 0 0-1.984-.078c-1.266 0-2.359.078-3.219.109-.594.039-1.141.055-1.625.07-.938.164-2.391.508-4.125.914-.188.039-.297.055-.484.094-2.766.609-5.656.93-8.609.93-22.109 0-40.016-17.898-40.016-40 0-4.219.719-8.258 1.938-12.094C288.395 86.461 329.707 32 412.91 32 458.113 32 512 50.711 512 139.852c0 28.234-10.246 105.75-105.168 215.402zM16.008 191.984c-8.828 0-16.008-7.18-16.008-16 0-8.844 7.18-16.008 16.008-16.008 8.844 0 16 7.164 16 16.008 0 8.821-7.156 16-16 16z"/></svg>